. 
  
http://www.torrenting.com/        :     Greatest Movie Tracker on The Net!!!
 
http://www.Torrenting.com          :     Once & For all ;)


               www . Torrenting . Com 

(((((((((((((= Enjoy No RAR releases =))))))))))))))))))))


...................................NFO:....................................

.[pre]  
ooooo ooo        ooooo       .o.         .oooooo.     o8o  ooooo      ooo oooooooooooo 
`888' `88.       .888'      .888.       d8P'  `Y8b    `"'  `888b.     `8' `888'     `8 
 888   888b     d'888      .8"888.     888           oooo   8 `88b.    8   888         
 888   8 Y88. .P  888     .8' `888.    888           `888   8   `88b.  8   888oooo8    
 888   8  `888'   888    .88ooo8888.   888     ooooo  888   8     `88b.8   888    "    
 888   8    Y     888   .8'     `888.  `88.    .88'   888   8       `888   888       o 
o888o o8o        o888o o88o     o8888o  `Y8bood8P'   o888o o8o        `8  o888ooooood8  
                                                



                  Another Fine Release Brought to you from - IMAGiNE                   
                                                 

******************************************************************************************                              
       Harry Potter And The Deathly Hallows Part 2 New Source TS XViD - IMAGiNE                                                                
******************************************************************************************

Ripper ...........: IMAGiNE              IMDB Rating.......: 8.5/10                             
Video Codec.......: XViD                 Release Date......: 26/07/11
Audio Codec.......: MP3                  Theatre Date......: 15/07/11
Audio Bitrate.....: 128                  Runtime...........: 1h 58mn
Subtitles.........: ENG                  Language..........: ENGLISH
Resolution........: 720 x 304            IMDb URL..........: http://www.imdb.com/title/tt1201607/


[color=yellow]DETAILS:[/color]

Video
ID                               : 0
Format                           : MPEG-4 Visual
Format profile                   : Advanced Simple@L5
Format settings, BVOP            : 2
Format settings, QPel            : No
Format settings, GMC             : No warppoints
Format settings, Matrix          : Default (MPEG)
Codec ID                         : DX50
Codec ID/Hint                    : DivX 5
Duration                         : 1h 58mn
Bit rate                         : 2 377 Kbps
Width                            : 720 pixels
Height                           : 304 pixels
Display aspect ratio             : 2.35:1
Frame rate                       : 29.970 fps
Color space                      : YUV
Chroma subsampling               : 4:2:0
Bit depth                        : 8 bits
Scan type                        : Progressive
Compression mode                 : Lossy
Bits/(Pixel*Frame)               : 0.362
Stream size                      : 1.96 GiB (94%)
Writing library                  : XviD 64

Audio
ID                               : 1
Format                           : MPEG Audio
Format version                   : Version 1
Format profile                   : Layer 3
Codec ID                         : 55
Codec ID/Hint                    : MP3
Duration                         : 1h 58mn
Bit rate mode                    : Constant
Bit rate                         : 128 Kbps
Channel(s)                       : 2 channels
Sampling rate                    : 44.1 KHz
Compression mode                 : Lossy
Stream size                      : 108 MiB (5%)
Alignment                        : Split accross interleaves
Interleave, duration             : 33 ms (1.00 video frame)
Interleave, preload duration     : 500 ms



[color=yellow]SOURCES:[/color]

VIDEO:Thanks m8ty + Russian cam .... thanks
AUDIO:Thanks m8ty

[color=yellow]NOTES:[/color]

Ok heres a new source of harry potter which contains english subs when needed now :)
The source was very dark in places,but also very bright in light scenes,so needed alot of work.
Firstly we had to rotate and level the video up and then crop all unwanted borders etc....then we
moved onto the brightness,contrast and colouring ...which we also tweaked.
Now like we said the bright scenes were very bright and the one @ 1hr 31mins you couldn't see anything,so
for that part we had to take the russian cam and add it into our encode....last around 5mins.
After all that it was down to syncing it and what a pita it was ...due too dark scenes and other things
some parts were dam hard to sync,but i think we got most if not all of it sorted :)

Anyway enjoy a new source folks :)


[color=yellow]SCREENS:[/color]

[IMG]http://www.grinshare.com/img/GNDWAH.png[/IMG]
[IMG]http://www.grinshare.com/img/XCCRSC.png[/IMG]
[IMG]http://www.grinshare.com/img/607F95.png[/IMG]
[IMG]http://www.grinshare.com/img/NHF06X.png[/IMG]
[IMG]http://www.grinshare.com/img/IRY6E9.png[/IMG]
[IMG]http://www.grinshare.com/img/PAWCQS.png[/IMG]

[color=yellow]GREETS:[/color]

             FLAWL3SS,KINOPARK,Rx,ELEKTRI4KA,ADDiCTED,Autotron,CiNEDUB,CRYS
                   And to all the other p2p grps past and present 

[COLOR=RED]Looking for these,syncers,cammers,audio,silver supplier.....Have anything to offer????......
Contact us imaginegroup@hushmail.com[/COLOR][/pre]